<svg xmlns="http://www.w3.org/2000/svg" viewBox="0 0 83.24 53.9"><defs><style>.cls-1{fill:#6ec5c3;}.cls-2{fill:#fff;}.cls-3{fill:#92d1d2;}.cls-4,.cls-5{fill:none;stroke:#fff;stroke-linecap:round;}.cls-4{stroke-miterlimit:10;}.cls-5{stroke-linejoin:round;}</style></defs><g id="图层_2" data-name="图层 2"><g id="图层_1-2" data-name="图层 1"><path class="cls-1" d="M38.5,49.15a15.8,15.8,0,0,1-11.19-4.62L14.14,31.35a3.17,3.17,0,0,1,4.48-4.48L31.79,40.05a9.48,9.48,0,1,0,13.4-13.4L32,13.47A3.17,3.17,0,0,1,36.5,9L49.68,22.16a15.81,15.81,0,0,1-11.18,27Z"/><path class="cls-1" d="M20.12,53.9A3.19,3.19,0,0,1,17.88,53L4.7,39.8a15.85,15.85,0,0,1,0-22.37,16.2,16.2,0,0,1,22.36,0L40.24,30.61a3.17,3.17,0,0,1-4.48,4.48L22.58,21.92a9.69,9.69,0,0,0-13.4,0,9.49,9.49,0,0,0,0,13.4L22.36,48.49a3.17,3.17,0,0,1-2.24,5.41Z"/><path class="cls-1" d="M28.5,1C30,2.39,30.8,6.41,30,7.31s-4.92.4-6.41-1A3.63,3.63,0,1,1,28.5,1Z"/><text/><path class="cls-2" d="M3.54,43.85v.24H2.88v4.17l.48-.11L3.77,48l0,.25-.42.11-.49.12V50H2.63v-1.4L2,48.72l-1,.2L.11,49l0-.25c.22,0,.48-.06.77-.11V44.09H.31v-.24ZM1.09,45.36H2.63V44.09H1.09Zm0,1.51H2.63V45.58H1.09Zm.83,1.6.37-.08.34-.08V47.1H1.09v1.53l.4-.08ZM3,49.63A8.68,8.68,0,0,0,4,48.77a6,6,0,0,0,.69-.88l-.1-.19a1.14,1.14,0,0,1-.1-.19,9,9,0,0,1-.76-3H3.48v-.26H6v.26a15.42,15.42,0,0,1-.37,1.74,7.53,7.53,0,0,1-.52,1.33l-.09.17-.1.18a7.1,7.1,0,0,0,1.57,1.66l-.16.21c-.33-.28-.63-.55-.89-.82a7.09,7.09,0,0,1-.67-.82,7.56,7.56,0,0,1-.69.85,8.22,8.22,0,0,1-.9.85Zm.9-5.16a8.18,8.18,0,0,0,.73,2.92c0,.08.08.17.14.27l.13-.23a10.33,10.33,0,0,0,.85-3Z"/><path class="cls-2" d="M7.08,46.61c0-.18.09-.37.13-.58s.09-.42.13-.64.07-.44.09-.67.06-.45.08-.67h.24l-.06.44L7.63,45H8.3V43.42h.23V45h.89v.24H8.53V47L9,46.69l.41-.22,0,.15,0,.09L9.07,47l-.54.27v2.72H8.3V47.33l-.65.3a4.64,4.64,0,0,1-.51.21l-.08-.25.52-.2c.2-.09.43-.19.68-.32h0V45.19H7.59l0,.24a6.45,6.45,0,0,1-.12.66c0,.2-.09.39-.14.57Zm1.8,1.87a6.63,6.63,0,0,0,1.28-1.66A6.67,6.67,0,0,0,10.72,45H10c-.11.22-.21.43-.32.62l-.33.54L9.11,46a6.81,6.81,0,0,0,.68-1.19,10.14,10.14,0,0,0,.53-1.35l.24,0c-.07.21-.14.42-.23.63s-.17.42-.26.63h3.06c0,.76,0,1.47-.06,2.14S13,48.13,13,48.69a1.77,1.77,0,0,1-.07.45.68.68,0,0,1-.15.28.72.72,0,0,1-.26.14,1.78,1.78,0,0,1-.38.06l-.26,0H11.1l0-.28h1l.31,0a.43.43,0,0,0,.2-.11.53.53,0,0,0,.12-.25,2.7,2.7,0,0,0,.07-.44c0-.51.07-1.07.09-1.7s0-1.25.07-1.9h-.81a8.7,8.7,0,0,1-.66,2.66,6.19,6.19,0,0,1-.66,1.12,8.84,8.84,0,0,1-1,1.07l-.18-.19a6.5,6.5,0,0,0,1.62-2.11A8.78,8.78,0,0,0,11.87,45H11A8.65,8.65,0,0,1,10.71,46a6.11,6.11,0,0,1-.35.89A7,7,0,0,1,9,48.68Z"/><path class="cls-2" d="M15.55,46.36a.35.35,0,0,1,.25.09.37.37,0,0,1,.08.25.39.39,0,0,1-.08.25.35.35,0,0,1-.25.09.36.36,0,0,1-.26-.09.35.35,0,0,1-.09-.25.33.33,0,0,1,.09-.25A.36.36,0,0,1,15.55,46.36Z"/><path class="cls-2" d="M17.59,47.08c.17-.23.34-.48.51-.76s.33-.57.49-.88.3-.62.44-.95.26-.64.37-1l.25.08c-.09.26-.19.52-.29.77l-.33.76v4.8h-.25v-4.3c-.15.29-.31.58-.47.85s-.34.52-.51.76Zm3.46-1.33c0-.15,0-.3,0-.46l0-.48,0-.68,0-.68h.26c0,.23,0,.46,0,.68l0,.68c0,.33,0,.64.06.92l2.59-.23v.24L21.32,46a11.16,11.16,0,0,0,.37,2,3.91,3.91,0,0,0,.6,1.23,1,1,0,0,0,.32.29.6.6,0,0,0,.29.09.28.28,0,0,0,.22-.12,1.85,1.85,0,0,0,.21-.46c0-.1.08-.22.13-.37s.09-.28.12-.41l.22.15-.13.38c0,.15-.08.26-.11.36s-.1.26-.15.36a1.53,1.53,0,0,1-.15.23.36.36,0,0,1-.16.12.65.65,0,0,1-.2,0,.72.72,0,0,1-.4-.12,1.69,1.69,0,0,1-.43-.4,3.82,3.82,0,0,1-.61-1.28,11.26,11.26,0,0,1-.38-2l-1.75.16,0-.25Zm1.05-2,.29.24.33.29.32.29.26.26-.16.18-.25-.26-.32-.3-.33-.29L22,44Z"/><path class="cls-2" d="M24.85,49.76a5.34,5.34,0,0,0,2.77-1.38,2.38,2.38,0,0,0,.37-.64H24.73V47.5h3.35a4.75,4.75,0,0,0,.21-1.28c0-.29,0-.58,0-.86s0-.56,0-.85h.25c0,.29,0,.58,0,.86s0,.57,0,.86a5.15,5.15,0,0,1-.19,1.27h2.53v.24h-2.6c0,.07-.05.14-.08.2s-.07.13-.1.19l.58.29.7.4a9.66,9.66,0,0,1,1.35.91l-.14.21q-.24-.19-.57-.42c-.22-.15-.47-.31-.76-.48l-.7-.41a6.52,6.52,0,0,0-.58-.3,1.91,1.91,0,0,1-.25.33,3.63,3.63,0,0,1-1.06.73A10.15,10.15,0,0,1,25,50ZM30.51,44v.24c-.12.22-.23.44-.36.64l-.39.61-.22-.12c.13-.18.25-.36.37-.55s.22-.38.32-.58H25.08V44Zm-5.18,1.79a3.5,3.5,0,0,1,.41.22l.49.31.5.34c.15.11.27.21.36.29l-.14.2-.36-.28-.49-.34-.52-.34-.37-.22ZM26,44.65l.37.19.43.26.46.29.36.25-.13.2-.34-.24-.47-.3L26.18,45l-.36-.18Z"/><path class="cls-2" d="M33.05,46.36a.35.35,0,0,1,.25.09.37.37,0,0,1,.08.25.39.39,0,0,1-.08.25.35.35,0,0,1-.25.09.36.36,0,0,1-.26-.09.35.35,0,0,1-.09-.25.33.33,0,0,1,.09-.25A.36.36,0,0,1,33.05,46.36Z"/><path class="cls-2" d="M36.72,45.23v-.75H35.27v-.23h1.45v-.74H37v.74h1.41v.23H37v.75h1.28v.23H37c0,.16,0,.3,0,.42a3.49,3.49,0,0,1,0,.35h1.49v.22H36.88a2.5,2.5,0,0,1-.09.25,1.27,1.27,0,0,1-.12.23,3.37,3.37,0,0,1-1.4,1l-.13-.21a5.94,5.94,0,0,0,.84-.48,2,2,0,0,0,.46-.45,1.16,1.16,0,0,0,.18-.37H35.14v-.22h1.53a3.09,3.09,0,0,0,0-.35c0-.13,0-.27,0-.42H35.43v-.23Zm1.45,2.43V47h.24v.71h2.11v1.12a1.52,1.52,0,0,1,0,.32.41.41,0,0,1-.1.21.47.47,0,0,1-.22.12,1.49,1.49,0,0,1-.36.06l-.34,0h-.29l0-.26.31,0h.29a2,2,0,0,0,.29,0,.34.34,0,0,0,.16-.06.3.3,0,0,0,.06-.14,1.47,1.47,0,0,0,0-.25V47.9H38.41V50h-.24V47.9H36.33v1.64h-.24V47.66ZM41,44v.22a10.91,10.91,0,0,1-.7.94l.27.16a2.65,2.65,0,0,1,.26.21,1.24,1.24,0,0,1,.19.26.6.6,0,0,1,.08.29,1,1,0,0,1,0,.28.43.43,0,0,1-.15.18.78.78,0,0,1-.26.1l-.39.06h-.72l0-.26.34,0h.29l.33,0a.64.64,0,0,0,.23-.06.23.23,0,0,0,.12-.12.48.48,0,0,0,0-.22.63.63,0,0,0-.19-.4A2.47,2.47,0,0,0,40,45.2a5.72,5.72,0,0,0,.37-.46l.36-.52H39v2.9h-.23V44Z"/><path class="cls-2" d="M43.72,45.23v-.75H42.27v-.23h1.45v-.74H44v.74h1.41v.23H44v.75h1.28v.23H44c0,.16,0,.3,0,.42a3.49,3.49,0,0,1,0,.35h1.49v.22H43.88a2.5,2.5,0,0,1-.09.25,1.27,1.27,0,0,1-.12.23,3.37,3.37,0,0,1-1.4,1l-.13-.21a5.94,5.94,0,0,0,.84-.48,2,2,0,0,0,.46-.45,1.16,1.16,0,0,0,.18-.37H42.14v-.22h1.53a3.09,3.09,0,0,0,0-.35c0-.13,0-.27,0-.42H42.43v-.23Zm1.45,2.43V47h.24v.71h2.11v1.12a1.52,1.52,0,0,1,0,.32.41.41,0,0,1-.1.21.47.47,0,0,1-.22.12,1.49,1.49,0,0,1-.36.06l-.34,0h-.29l0-.26.31,0h.29a2,2,0,0,0,.29,0,.34.34,0,0,0,.16-.06.3.3,0,0,0,.06-.14,1.47,1.47,0,0,0,0-.25V47.9H45.41V50h-.24V47.9H43.33v1.64h-.24V47.66ZM48,44v.22a10.91,10.91,0,0,1-.7.94l.27.16a2.65,2.65,0,0,1,.26.21,1.24,1.24,0,0,1,.19.26.6.6,0,0,1,.08.29,1,1,0,0,1,0,.28.43.43,0,0,1-.15.18.78.78,0,0,1-.26.1l-.39.06h-.72l0-.26.34,0h.29l.33,0a.64.64,0,0,0,.23-.06.23.23,0,0,0,.12-.12.48.48,0,0,0,0-.22.63.63,0,0,0-.19-.4A2.47,2.47,0,0,0,47,45.2a5.72,5.72,0,0,0,.37-.46l.36-.52H46v2.9h-.23V44Z"/><path class="cls-2" d="M49,47.1c0-.14.09-.33.13-.55l.12-.69c0-.24.07-.47.09-.7a4.72,4.72,0,0,0,0-.57l.24,0c0,.15,0,.35-.05.58s-.07.47-.1.71-.09.48-.13.7-.08.42-.12.57Zm1.33-3.65v6.49h-.24V43.45Zm.32,1.15.19.3c.06.11.12.22.19.33l.16.32.12.26-.19.11-.11-.24c0-.11-.11-.22-.17-.33s-.13-.23-.19-.34-.13-.22-.18-.29Zm4.77.19V45H52v4.28h3.17v.25H51.79V45h-.63v-.25ZM53,43.36a2.33,2.33,0,0,1,.15.23l.18.32.19.35c.06.11.1.21.14.28l-.21.11a1.73,1.73,0,0,0-.12-.25l-.19-.34-.2-.35a2.53,2.53,0,0,0-.15-.22Z"/><path class="cls-2" d="M0,38.13A10.7,10.7,0,0,0,.43,36.9a10.56,10.56,0,0,0,.25-1.29c.07-.48.11-1,.14-1.67s0-1.41,0-2.34V27.78H2.1v3.79c0,.7,0,1.32,0,1.86s0,1-.06,1.45-.06.8-.1,1.13-.09.63-.15.92-.13.55-.2.82-.17.53-.27.81Zm3.7-9.9v9.48H2.51V28.23ZM7.26,30c.07-.25.13-.53.18-.81H5.59V27.9h5.5v1.26H8.9l-.09.4a2.73,2.73,0,0,1-.1.41h2v5.86H9.52c.34.28.69.57,1,.88s.64.59.87.83l-1,1.14a14.8,14.8,0,0,0-1-1.06c-.38-.35-.74-.66-1.08-.94a4.29,4.29,0,0,1-.87,1.12,7.54,7.54,0,0,1-1.46,1l-.67-.95v.4H4.1V27.76H5.33v9.76a7.1,7.1,0,0,0,1.22-.83,2.62,2.62,0,0,0,1-1.8,11.25,11.25,0,0,0,.06-1.23v-2h1.3V34c0,.23,0,.44,0,.65a6,6,0,0,1-.07.61l.28.21.3.24V31.27H7.08v4.59H5.77V30Z"/><path class="cls-2" d="M17.08,33.69V32.43H13.33V30.91h3.75V29.66c-.78.06-1.47.09-2.07.11s-1.11,0-1.55,0l-.3-1.52c.56,0,1.2,0,1.92-.05s1.53-.09,2.45-.16,1.75-.15,2.47-.23,1.34-.16,1.82-.25l.42,1.56c-1,.15-2.15.28-3.56.4v1.38h3.57v1.52H18.68v1.26h4.4v1.6h-4.4V36.7a2,2,0,0,1-.3,1.23,1.63,1.63,0,0,1-1.14.51,5.27,5.27,0,0,1-.82.06h-.87l-.31-1.6.61,0h.57l.36,0a.42.42,0,0,0,.19-.09.31.31,0,0,0,.09-.18,2.45,2.45,0,0,0,0-.32v-1H12.49v-1.6Z"/><path class="cls-2" d="M28.78,37.05l.51,0h.47a1.33,1.33,0,0,0,.32,0,.33.33,0,0,0,.19-.08.3.3,0,0,0,.08-.17,1.19,1.19,0,0,0,0-.29V36H28.13V34.62h2.24V33.7H27.9V32.38h2.47v-.86H28.45v-.6l-.62-.58v.4H27V32l.52-.26.28,1.5-.36.2-.44.21v3.4a1.55,1.55,0,0,1-.23,1,1.21,1.21,0,0,1-.74.37,5.4,5.4,0,0,1-.63.06q-.34,0-.66,0L24.48,37l.36,0h.55a.32.32,0,0,0,.13,0,.26.26,0,0,0,.05-.14V34.33l-.54.22-.45.16-.42-1.52.63-.22.78-.31V30.74h-1.1V29.31h1.1V27.46H27v1.85h.83v.59a10.63,10.63,0,0,0,.87-1.18,11,11,0,0,0,.78-1.39l1.43.31-.21.46h3v1.21q-.34.47-.72.9h1.43v2.17h.71V33.7h-.71V36H31.8v.93a2.75,2.75,0,0,1-.08.7,1.09,1.09,0,0,1-.26.46,1,1,0,0,1-.43.27,3.16,3.16,0,0,1-.63.13,11.84,11.84,0,0,1-1.35.07ZM30,29.41a7.47,7.47,0,0,1-.57.8h1.74l.34-.39.34-.41Zm1.84,2.11v.86H33v-.86ZM33,34.62V33.7H31.8v.92Z"/><path class="cls-2" d="M40.64,30.66V27.51h1.61v.94h4.42v1.46H42.25v.75h3.84v4.53h-.32a6.5,6.5,0,0,1,.35.57c.13.21.26.45.4.72s.29.53.4.76.2.43.28.62l-1.34.73c-.08-.21-.18-.43-.28-.65s-.22-.48-.38-.77-.29-.57-.41-.79-.24-.42-.35-.58l1.21-.61h-8l1.33.46a6.83,6.83,0,0,1-.27.68c-.1.24-.24.53-.4.87l-.42.84-.36.62L36.2,38c.11-.16.22-.35.35-.57l.4-.77a10.72,10.72,0,0,0,.63-1.43h-.12V30.66Zm-1.62,3h5.51V32.16H39Zm1.78,1.84a4.5,4.5,0,0,1,.16.57q.07.33.18.75t.15.72c0,.22.06.42.07.6l-1.5.28c0-.17,0-.37-.06-.58s-.07-.46-.13-.74-.09-.52-.14-.73-.1-.4-.15-.56Zm2.51-.12a4.76,4.76,0,0,1,.24.54,7,7,0,0,1,.27.72q.15.41.24.72c.07.21.12.4.16.57l-1.39.41c0-.17-.09-.36-.16-.58s-.14-.45-.23-.7c-.18-.55-.34-1-.46-1.25Z"/><path class="cls-2" d="M48.08,34c.91-.25,1.72-.52,2.43-.79a12.3,12.3,0,0,0,1.88-.87h-2V31.5h2.28v.67l.49-.36h1.21l.21.18.23.17V31.5h2.29v.84h-2a10.33,10.33,0,0,0,1.82.86,22.66,22.66,0,0,0,2.38.73l-.46,1.37-.44-.14A3.52,3.52,0,0,1,58,35v.91a24.62,24.62,0,0,1-2.35,1.31l.49.16.48.18-.55,1.26c-1-.37-1.94-.69-2.92-1s-1.89-.5-2.74-.66L50.78,36l1.55.34c.55.14,1.12.28,1.69.44a15.46,15.46,0,0,0,1.73-.86H49.92V34.83l-1.28.47ZM53,29.17v-.4H49.33V27.64H58.2v1.13H54.5v.4h4.37v2.37H57.38V30.1H54.5v1.4H53V30.1H50.11v1.54H48.67V29.17Zm.74,4.08.5.53q.27.3.48.57l-.49.3H57l-.6-.24-.6-.26a9.62,9.62,0,0,1-2.06-1.21,9.33,9.33,0,0,1-2,1.15l-.67.29-.69.27h3L53,34.29c-.11-.13-.21-.25-.32-.36Zm-1.08-2.83v.75H50.4v-.75Zm4.43,0v.75H54.82v-.75Z"/><path class="cls-2" d="M63.66,35.07v3.6H62.14v-4l-.51.57-.54.54-1.17-1.07a17.91,17.91,0,0,0,1.8-1.95,14.56,14.56,0,0,0,1.36-2.13l1.47.55a14.75,14.75,0,0,1-.89,1.5v2.2l1-.47c.33-.15.65-.31,1-.48V31h1.6v2A24.15,24.15,0,0,0,70,31l.94,1.27c-.52.43-1.09.86-1.7,1.28s-1.26.84-1.94,1.24v1.41a4.26,4.26,0,0,0,0,.43.34.34,0,0,0,.14.22.74.74,0,0,0,.35.09h.67l.61,0a.73.73,0,0,0,.34-.09.37.37,0,0,0,.16-.22,2.75,2.75,0,0,0,.06-.43c0-.16,0-.31,0-.47a3.68,3.68,0,0,0,0-.49l1.52.35c0,.18,0,.37,0,.56s0,.38-.07.59a4.05,4.05,0,0,1-.17.77,1.22,1.22,0,0,1-.33.52,1.24,1.24,0,0,1-.55.31,3.76,3.76,0,0,1-.86.14c-.29,0-.6,0-.92,0s-.61,0-.87,0a2.94,2.94,0,0,1-.83-.15A1.21,1.21,0,0,1,66,38a1.42,1.42,0,0,1-.28-.62,4.66,4.66,0,0,1-.08-.91v-.76L65,36l-.67.31Zm-.44-6.55V27.44H64.7v1.08h2.13V27.44h1.49v1.08H71V30H68.32v.72H66.83V30H64.7v.61H63.22V30h-2.6V28.52Z"/><path class="cls-2" d="M73.74,33.16v-1h-1V30.92l-.84-.65.63-.75c.2-.27.39-.53.56-.78s.32-.51.45-.75.25-.47.34-.67l1.33.38c-.06.13-.12.28-.2.44a3.71,3.71,0,0,1-.27.52h2V30l1-.12c0-.43-.06-.83-.07-1.22s0-.75,0-1.1l1.46,0,.14,2.19,1.35-.17-.17-.25L80.21,29l-.35-.45c-.1-.13-.2-.24-.29-.34l1-.73c.1.09.21.21.33.34s.25.29.39.46a8.26,8.26,0,0,1,.65.83l-.49.32,1.27-.15.11,1.34L79.33,31c0,.16,0,.31,0,.46s0,.28.05.42l3.48-.46L83,32.78,81.8,33l.82.86A12.43,12.43,0,0,1,81.56,35a11.43,11.43,0,0,1-1.16,1l.12.25.12.21a1.42,1.42,0,0,0,.34.44.56.56,0,0,0,.27.11.35.35,0,0,0,.21-.09.82.82,0,0,0,.19-.37c0-.16.1-.37.16-.61s.12-.49.19-.74l1.24.68c-.07.29-.14.56-.22.81a4.42,4.42,0,0,1-.26.7,2.8,2.8,0,0,1-.67,1.09,1.18,1.18,0,0,1-.84.32,1.7,1.7,0,0,1-1-.34,3.85,3.85,0,0,1-1-1.16c-.08-.13-.15-.27-.23-.42a16.1,16.1,0,0,1-1.86.93l-.68-1.34a16,16,0,0,0,2-1c-.08-.29-.16-.61-.23-.94s-.14-.69-.2-1.07l-1.44.2-.11-1.39L78,32.11l-.09-.89-1.09.12L76.67,30H73.92c-.1.15-.19.28-.29.41a3.51,3.51,0,0,1-.29.36h3.09v1.38H75.18v1H76.6v1.46H75.18v1.65l1.15-.75.19,1.59a5.37,5.37,0,0,1-.54.33c-.22.13-.45.25-.69.37l-.7.34c-.23.11-.43.19-.61.26l-.58-1.24a.58.58,0,0,0,.29-.3,1.48,1.48,0,0,0,0-.39V34.62H72.38V33.16Zm6.17,1.43a10.38,10.38,0,0,0,.86-.76c.27-.27.53-.55.77-.83l-1.92.27C79.71,33.76,79.8,34.2,79.91,34.59Z"/><circle class="cls-3" cx="7" cy="9.69" r="6.87"/><path class="cls-4" d="M17.63,7.67V7.34a.81.81,0,0,1,.81-.81h6a.81.81,0,0,1,.81.81v.33"/><line class="cls-4" x1="18.27" y1="9" x2="24.72" y2="9"/><path class="cls-5" d="M23.06,8.16v3.91a1,1,0,0,1-1,1H21.7"/><path class="cls-4" d="M19.54,10.48a1.19,1.19,0,0,1,1.34,1.39"/><line class="cls-4" x1="20.88" y1="5.19" x2="22.11" y2="5.19"/><path class="cls-4" d="M29.07,5.19v5a3.77,3.77,0,0,1-.51,1.89l-.61,1"/><line class="cls-4" x1="29.96" y1="12.16" x2="30.63" y2="13.07"/><line class="cls-4" x1="27.58" y1="6.9" x2="27.58" y2="9.41"/><line class="cls-4" x1="30.63" y1="7.67" x2="30.63" y2="8.65"/><line class="cls-4" x1="30.63" y1="5.89" x2="35.33" y2="5.89"/><path class="cls-5" d="M32.16,13.07h0a1.51,1.51,0,0,0,1.52-1.51V6"/><path class="cls-5" d="M8.25,6.94,10.33,9a2,2,0,0,1,0,2.82h0a2,2,0,0,1-2.83,0L5.43,9.77"/><path class="cls-5" d="M6,13.18,3.94,11.1a2,2,0,0,1,0-2.82h0a2,2,0,0,1,2.82,0l2.08,2.08"/><path class="cls-2" d="M7.34,5.33c.23.22.36.85.23,1a1.07,1.07,0,0,1-1-.16.57.57,0,1,1,.78-.84Z"/></g></g></svg>